<svg xmlns="http://www.w3.org/2000/svg" height="800" width="1200" xml:space="preserve" y="0" x="0" id="Layer_1" version="1.1" viewBox="-42.36 -18.733125 367.12 112.39875"><style id="style15123" type="text/css">.st0{fill:#00a2e5}</style><g transform="translate(0 .0325)" id="Flow_1_"><path id="path15127" d="M181.2 33.7c0-.2 0-.5.1-.7 0-.7.1-1.4.1-2.1v-.5c-.1-7.2-2.2-13.8-6.3-19.1C169.6 4.4 161.2.4 151.4 0c-10.1-.4-20.2 2.9-28.5 9.7-3.6 3-6.7 6.5-9.2 10.3-3.1 4.5-5.3 9.6-6.4 15.2v.2c-.2 1-.4 1.9-.5 2.9 0 .1 0 .3-.1.4-.1.6-.1 1.2-.2 1.8 0 .2 0 .5-.1.7 0 .7-.1 1.4-.1 2.1v.5c.1 7.2 2.2 13.8 6.3 19.1 5.4 6.9 13.8 10.9 23.6 11.2 10.1.4 20.2-2.9 28.5-9.7 3.6-3 6.7-6.5 9.2-10.3 3.1-4.5 5.3-9.6 6.4-15.2v-.2c.2-1 .4-1.9.5-2.9 0-.1 0-.3.1-.4.2-.5.3-1.1.3-1.7zM128 52.3c-3.2-4.1-4.3-9.9-3-16v-.2c2.5-12.2 12.7-20.1 23.6-19.8h.7c4.3.5 7.9 2.4 10.4 5.6 3.2 4.1 4.3 9.9 3 16v.2C160.1 50.4 150 58.3 139 57.9h-.7c-4.2-.5-7.8-2.4-10.3-5.6z" class="st0"/><path id="path15129" d="M34.2 17.5c1.6-.3 3.3-.2 4.7-.2h21.8L64 1.5H41c-6.8 0-13.3.2-18.6 2.6-6 2.7-9.8 8-11.5 16.2L0 73.9h9.8c9.2 0 10.8-8.2 11-8.9l3.9-19.4h27.6l3.2-15.5H27.8l1.1-5.5c.1-.3.3-1.5.8-3.2 0 0 .4-1.5 1.5-2.5.8-.8 1.9-1.2 3-1.4z" class="st0"/><g id="g15133"><path id="path15131" d="M242 13c-1.7-3.4-5-5.1-8.7-5.1-6.7 0-11.7 4.2-15.8 13.3l-13.3 29.5V11.9c0-3.7-.9-6.5-2.9-8.5-1.9-1.9-4.6-2.9-8.1-2.9-3 0-5.5.7-5.6.8l-.7.2 1 60.5c.2 8.4 3.1 11.9 10.6 12.8.4 0 .9.1 1.3.1 6.2 0 11.7-4.5 15.1-12.4l12.9-29.2v6.5l.3 22.3c.3 8.8 3.8 12.7 11.5 12.7 7 0 11.8-3.8 15.6-12.4l27.2-60.5-1-.4c-.1-.1-3.5-1.5-7.6-1.5s-9.6 1.4-12.5 8.3c-3.2 7.5-16.5 40.4-16.6 40.8l-.6 1.5-.2-27.8c0-3.2-.4-6.9-1.9-9.8z" class="st0"/></g><path id="path15135" d="M103.7 57.9l-3.3 16H82.2c-9 0-16.8-.4-20.7-5.3-2.6-3.2-3.2-7.8-1.9-14.1l11-53h5c.5 0 6-.2 9.2 3.7 2.1 2.6 2.7 6.3 1.7 11L79.2 51c-.7 3.3-.7 5 0 5.9.7.8 2.3 1.2 5.6 1.2h13.5l5.4-.2" class="st0"/></g></svg>